<svg width="44" height="34" viewBox="0 0 44 34" fill="none" xmlns="http://www.w3.org/2000/svg">
<g clip-path="url(#clip0)">
<path d="M8.00353 33.9094V31.6513C8.01674 31.4614 7.98919 31.2708 7.9227 31.0924C7.85622 30.9139 7.75232 30.7516 7.61795 30.6163C7.48359 30.481 7.32182 30.3757 7.14344 30.3076C6.96506 30.2395 6.77415 30.21 6.58344 30.2211C6.33381 30.2048 6.08437 30.2556 5.86115 30.3681C5.63793 30.4807 5.44912 30.6509 5.31444 30.8609C5.19197 30.6577 5.0169 30.4911 4.80758 30.3786C4.59826 30.266 4.3624 30.2116 4.12474 30.2211C3.91702 30.2107 3.71016 30.2545 3.52466 30.3482C3.33917 30.442 3.18148 30.5824 3.06722 30.7556V30.3115H2.28165V33.9094H3.07478V31.9147C3.05791 31.7917 3.06851 31.6665 3.10586 31.548C3.1432 31.4295 3.20634 31.3207 3.29078 31.2294C3.37521 31.1381 3.47885 31.0665 3.59429 31.0197C3.70973 30.9729 3.83412 30.9521 3.95856 30.9588C4.47598 30.9588 4.74035 31.2975 4.74035 31.9072V33.9094H5.53349V31.9147C5.5173 31.7918 5.52841 31.6669 5.566 31.5487C5.6036 31.4305 5.66677 31.322 5.75106 31.2308C5.83535 31.1397 5.93871 31.068 6.05382 31.021C6.16894 30.974 6.293 30.9528 6.41726 30.9588C6.95357 30.9588 7.2104 31.2975 7.2104 31.9072V33.9094H8.00353ZM19.7343 30.3115H18.4502V29.22H17.6571V30.3115H16.9244V31.0265H17.6571V32.6674C17.6571 33.503 17.9819 33.9997 18.911 33.9997C19.2581 34.0007 19.5984 33.9042 19.893 33.7212L19.6664 33.0513C19.4557 33.1765 19.2166 33.2465 18.9714 33.2546C18.5938 33.2546 18.4502 33.0137 18.4502 32.6524V31.0265H19.7343V30.3115ZM26.4344 30.2211C26.2429 30.2155 26.0534 30.2615 25.8859 30.3542C25.7184 30.447 25.5791 30.583 25.4827 30.748V30.3115H24.7046V33.9094H25.4902V31.8922C25.4902 31.2975 25.747 30.9663 26.2456 30.9663C26.4136 30.964 26.5805 30.9947 26.7366 31.0566L26.9783 30.3039C26.7989 30.2399 26.6099 30.2068 26.4193 30.2061L26.4344 30.2211ZM16.305 30.5975C15.8603 30.334 15.3491 30.2034 14.832 30.2211C13.918 30.2211 13.3213 30.6577 13.3213 31.3728C13.3213 31.9599 13.7594 32.3212 14.5677 32.4341L14.9453 32.4868C15.3759 32.547 15.5798 32.6599 15.5798 32.8631C15.5798 33.1417 15.2928 33.2997 14.7565 33.2997C14.3251 33.3122 13.9021 33.1796 13.5555 32.9234L13.1778 33.5331C13.6354 33.8515 14.1835 34.015 14.7414 33.9997C15.7838 33.9997 16.3881 33.5105 16.3881 32.8255C16.3881 32.1406 15.9122 31.862 15.1266 31.7491L14.7489 31.6965C14.409 31.6513 14.1371 31.5835 14.1371 31.3427C14.1371 31.1018 14.3939 30.9212 14.8245 30.9212C15.2224 30.9258 15.6125 31.032 15.9575 31.2298L16.305 30.5975ZM37.3457 30.2211C37.1541 30.2155 36.9646 30.2615 36.7971 30.3542C36.6296 30.447 36.4903 30.583 36.3939 30.748V30.3115H35.6159V33.9094H36.4015V31.8922C36.4015 31.2975 36.6583 30.9663 37.1568 30.9663C37.3249 30.964 37.4917 30.9947 37.6478 31.0566L37.8895 30.3039C37.7102 30.2399 37.5211 30.2068 37.3306 30.2061L37.3457 30.2211ZM27.2276 32.1029C27.2182 32.3558 27.2619 32.6078 27.356 32.8428C27.45 33.0778 27.5921 33.2907 27.7735 33.4678C27.9548 33.645 28.1712 33.7824 28.4089 33.8714C28.6465 33.9604 28.9002 33.999 29.1537 33.9847C29.6254 34.0086 30.089 33.8555 30.453 33.5556L30.0753 32.9234C29.8037 33.1297 29.4726 33.2432 29.1311 33.247C28.8407 33.2236 28.5698 33.0921 28.3723 32.8787C28.1748 32.6654 28.0651 32.3857 28.0651 32.0954C28.0651 31.8051 28.1748 31.5254 28.3723 31.312C28.5698 31.0986 28.8407 30.9672 29.1311 30.9437C29.4726 30.9475 29.8037 31.061 30.0753 31.2674L30.453 30.6351C30.089 30.3352 29.6254 30.1822 29.1537 30.2061C28.9002 30.1918 28.6465 30.2303 28.4089 30.3193C28.1712 30.4083 27.9548 30.5458 27.7735 30.7229C27.5921 30.9 27.45 31.1129 27.356 31.348C27.2619 31.583 27.2182 31.835 27.2276 32.0879V32.1029ZM34.581 32.1029V30.3039H33.7955V30.7405C33.6621 30.5695 33.4897 30.4325 33.2927 30.3408C33.0957 30.2492 32.8797 30.2056 32.6624 30.2136C32.1616 30.2136 31.6812 30.4119 31.3271 30.7648C30.973 31.1177 30.774 31.5963 30.774 32.0954C30.774 32.5945 30.973 33.0731 31.3271 33.426C31.6812 33.7789 32.1616 33.9772 32.6624 33.9772C32.8797 33.9852 33.0957 33.9415 33.2927 33.8499C33.4897 33.7583 33.6621 33.6213 33.7955 33.4503V33.8868H34.581V32.1029ZM31.6578 32.1029C31.6703 31.8911 31.7447 31.6876 31.8718 31.5174C31.999 31.3472 32.1733 31.2178 32.3733 31.1451C32.5733 31.0724 32.7903 31.0596 32.9975 31.1082C33.2047 31.1568 33.3932 31.2647 33.5396 31.4187C33.6861 31.5727 33.7841 31.766 33.8217 31.9748C33.8593 32.1837 33.8348 32.3989 33.7512 32.594C33.6676 32.7891 33.5286 32.9556 33.3512 33.073C33.1739 33.1903 32.966 33.2535 32.7531 33.2546C32.6035 33.2564 32.4552 33.2275 32.3174 33.1695C32.1797 33.1115 32.0555 33.0257 31.9526 32.9175C31.8497 32.8093 31.7704 32.6811 31.7197 32.5409C31.6689 32.4007 31.6479 32.2516 31.6578 32.1029ZM22.1817 30.2211C21.6809 30.2281 21.2034 30.4331 20.8542 30.7909C20.505 31.1488 20.3127 31.6302 20.3197 32.1293C20.3268 32.6283 20.5324 33.1042 20.8916 33.4522C21.2507 33.8001 21.7338 33.9917 22.2346 33.9847C22.7735 34.0036 23.3006 33.8241 23.7151 33.4804L23.3374 32.9008C23.0392 33.1391 22.6697 33.2716 22.2875 33.2771C22.028 33.2984 21.7704 33.2185 21.5689 33.0542C21.3674 32.8899 21.2377 32.6541 21.2073 32.3965H23.8889C23.8889 32.2986 23.8889 32.2008 23.8889 32.0954C23.8889 30.9663 23.1864 30.2136 22.1742 30.2136L22.1817 30.2211ZM22.1817 30.9212C22.2993 30.9187 22.4162 30.9393 22.5257 30.9818C22.6353 31.0243 22.7354 31.088 22.8202 31.169C22.9051 31.2501 22.9731 31.3471 23.0204 31.4544C23.0677 31.5616 23.0933 31.6772 23.0957 31.7943H21.2073C21.221 31.5527 21.329 31.326 21.5083 31.1628C21.6876 30.9997 21.9239 30.9129 22.1666 30.9212H22.1817ZM41.8854 32.1104V28.8662H41.0998V30.748C40.9664 30.577 40.7941 30.44 40.5971 30.3484C40.4001 30.2568 40.1841 30.2131 39.9668 30.2211C39.466 30.2211 38.9856 30.4194 38.6315 30.7723C38.2773 31.1252 38.0784 31.6038 38.0784 32.1029C38.0784 32.602 38.2773 33.0806 38.6315 33.4335C38.9856 33.7864 39.466 33.9847 39.9668 33.9847C40.1841 33.9927 40.4001 33.9491 40.5971 33.8575C40.7941 33.7658 40.9664 33.6289 41.0998 33.4578V33.8944H41.8854V32.1104ZM38.9622 32.1104C38.9747 31.8986 39.0491 31.6951 39.1762 31.525C39.3033 31.3548 39.4776 31.2254 39.6777 31.1527C39.8777 31.0799 40.0946 31.0671 40.3019 31.1157C40.5091 31.1643 40.6976 31.2723 40.844 31.4263C40.9905 31.5802 41.0885 31.7735 41.1261 31.9824C41.1637 32.1912 41.1392 32.4064 41.0556 32.6015C40.972 32.7966 40.833 32.9631 40.6556 33.0805C40.4783 33.1979 40.2703 33.261 40.0574 33.2621C39.9079 33.264 39.7596 33.235 39.6218 33.177C39.4841 33.119 39.3598 33.0332 39.257 32.925C39.1541 32.8169 39.0748 32.6887 39.0241 32.5485C38.9733 32.4083 38.9522 32.2591 38.9622 32.1104ZM12.4375 32.1104V30.3115H11.6519V30.748C11.5185 30.577 11.3462 30.44 11.1492 30.3484C10.9522 30.2568 10.7362 30.2131 10.5189 30.2211C10.0181 30.2211 9.53773 30.4194 9.18358 30.7723C8.82944 31.1252 8.63049 31.6038 8.63049 32.1029C8.63049 32.602 8.82944 33.0806 9.18358 33.4335C9.53773 33.7864 10.0181 33.9847 10.5189 33.9847C10.7362 33.9927 10.9522 33.9491 11.1492 33.8575C11.3462 33.7658 11.5185 33.6289 11.6519 33.4578V33.8944H12.4375V32.1104ZM9.51426 32.1104C9.52679 31.8986 9.60119 31.6951 9.72832 31.525C9.85545 31.3548 10.0298 31.2254 10.2298 31.1527C10.4298 31.0799 10.6467 31.0671 10.854 31.1157C11.0612 31.1643 11.2497 31.2723 11.3961 31.4263C11.5426 31.5802 11.6406 31.7735 11.6782 31.9824C11.7158 32.1912 11.6913 32.4064 11.6077 32.6015C11.5241 32.7966 11.3851 32.9631 11.2077 33.0805C11.0304 33.1979 10.8224 33.261 10.6095 33.2621C10.4594 33.265 10.3102 33.2368 10.1716 33.1793C10.0329 33.1218 9.90776 33.0361 9.80407 32.9278C9.70038 32.8196 9.62039 32.691 9.56921 32.5503C9.51802 32.4096 9.49674 32.2598 9.50671 32.1104H9.51426ZM20.8032 24.5607C20.9089 24.6548 21.0222 24.7414 21.1318 24.8317C19.0832 26.1858 16.7045 26.9611 14.2489 27.0752C11.7932 27.1892 9.35253 26.6377 7.18646 25.4793C5.02038 24.3209 3.20999 22.599 1.94795 20.4967C0.685902 18.3945 0.0194244 15.9907 0.0194244 13.541C0.0194244 11.0914 0.685902 8.68753 1.94795 6.58533C3.20999 4.48312 5.02038 2.7612 7.18646 1.6028C9.35253 0.444407 11.7932 -0.10712 14.2489 0.00690715C16.7045 0.120935 19.0832 0.896249 21.1318 2.25035C21.0222 2.33692 20.9089 2.42724 20.8032 2.52133C19.2203 3.88998 17.951 5.58149 17.0811 7.48138C16.2112 9.38127 15.761 11.4452 15.761 13.5335C15.761 15.6218 16.2112 17.6858 17.0811 19.5856C17.951 21.4855 19.2203 23.177 20.8032 24.5457V24.5607ZM30.4039 0.0185649C27.7257 0.0111402 25.1056 0.797132 22.8767 2.2767C22.9862 2.36326 23.0995 2.45359 23.2052 2.54768C24.787 3.91701 26.0553 5.60874 26.9245 7.50854C27.7936 9.40834 28.2434 11.4719 28.2434 13.5599C28.2434 15.6478 27.7936 17.7114 26.9245 19.6112C26.0553 21.511 24.787 23.2027 23.2052 24.572C23.0995 24.6661 22.9862 24.7527 22.8767 24.843C24.6439 26.0112 26.6609 26.7512 28.7664 27.0039C30.8719 27.2566 33.0075 27.0151 35.0026 26.2985C36.9977 25.582 38.7969 24.4104 40.2565 22.8772C41.716 21.3441 42.7955 19.492 43.4085 17.469C44.0216 15.4459 44.1512 13.3081 43.7871 11.2262C43.423 9.14429 42.5753 7.17613 41.3116 5.47901C40.0479 3.78189 38.4034 2.40285 36.5094 1.45211C34.6155 0.501371 32.5246 0.00528438 30.4039 0.00350745V0.0185649ZM22.0004 2.90145C21.8267 3.03694 21.653 3.17996 21.4868 3.32674C20.0198 4.59854 18.8436 6.1691 18.0376 7.93245C17.2316 9.6958 16.8145 11.6109 16.8145 13.5486C16.8145 15.4862 17.2316 17.4013 18.0376 19.1647C18.8436 20.928 20.0198 22.4986 21.4868 23.7704C21.653 23.9172 21.8267 24.0564 22.0004 24.1957C22.1742 24.0564 22.3479 23.9172 22.5141 23.7704C23.9811 22.4986 25.1573 20.928 25.9633 19.1647C26.7693 17.4013 27.1864 15.4862 27.1864 13.5486C27.1864 11.6109 26.7693 9.6958 25.9633 7.93245C25.1573 6.1691 23.9811 4.59854 22.5141 3.32674C22.3479 3.17996 22.1742 3.03694 22.0004 2.90145Z" fill="#5C6D84"/>
</g>
<defs>
<clipPath id="clip0">
<rect width="44" height="34" fill="white"/>
</clipPath>
</defs>
</svg>
